<?xml version="1.0" encoding="UTF-8" standalone="no"?><!DOCTYPE svg PUBLIC "-//W3C//DTD SVG 1.1//EN" "http://www.w3.org/Graphics/SVG/1.1/DTD/svg11.dtd"><svg width="100%" height="100%" viewBox="0 0 1920 1080" version="1.1" xmlns="http://www.w3.org/2000/svg" xmlns:xlink="http://www.w3.org/1999/xlink" xml:space="preserve" xmlns:serif="http://www.serif.com/" style="fill-rule:evenodd;clip-rule:evenodd;stroke-linejoin:round;stroke-miterlimit:1.41421;"><g><g id="dots"><path d="M1505.11,544.505c0,5.002 -4.055,9.057 -9.057,9.057c-5.002,0 -9.057,-4.055 -9.057,-9.057c0,-5.003 4.055,-9.058 9.057,-9.058c5.002,0 9.057,4.055 9.057,9.058" style="fill:#f1f1f1;fill-rule:nonzero;"/><path d="M444.093,369.561c0,11.625 -9.423,21.048 -21.048,21.048c-11.625,0 -21.048,-9.423 -21.048,-21.048c0,-11.625 9.423,-21.049 21.048,-21.049c11.625,0 21.048,9.424 21.048,21.049" style="fill:#f1f1f1;fill-rule:nonzero;"/><path d="M922.55,287.304c0,11.625 -9.423,21.049 -21.048,21.049c-11.625,0 -21.049,-9.424 -21.049,-21.049c0,-11.625 9.424,-21.048 21.049,-21.048c11.625,0 21.048,9.423 21.048,21.048" style="fill:#f1f1f1;fill-rule:nonzero;"/><path d="M1126.39,652.612c0,11.624 -9.424,21.049 -21.049,21.049c-11.625,0 -21.048,-9.425 -21.048,-21.049c0,-11.625 9.423,-21.048 21.048,-21.048c11.625,0 21.049,9.423 21.049,21.048" style="fill:#f1f1f1;fill-rule:nonzero;"/><path d="M1378.3,369.561c0,11.625 -9.424,21.048 -21.049,21.048c-11.625,0 -21.048,-9.423 -21.048,-21.048c0,-11.625 9.423,-21.049 21.048,-21.049c11.625,0 21.049,9.424 21.049,21.049" style="fill:#f1f1f1;fill-rule:nonzero;"/><path d="M1676.89,523.456c0,11.625 -9.424,21.049 -21.049,21.049c-11.625,0 -21.048,-9.424 -21.048,-21.049c0,-11.625 9.423,-21.048 21.048,-21.048c11.625,0 21.049,9.423 21.049,21.048" style="fill:#f1f1f1;fill-rule:nonzero;"/><path d="M1755.81,760.601c0,11.624 -9.424,21.048 -21.049,21.048c-11.625,0 -21.048,-9.424 -21.048,-21.048c0,-11.625 9.423,-21.049 21.048,-21.049c11.625,0 21.049,9.424 21.049,21.049" style="fill:#f1f1f1;fill-rule:nonzero;"/><path d="M1395.17,1005.11c0,11.625 -9.424,21.049 -21.049,21.049c-11.625,0 -21.048,-9.424 -21.048,-21.049c0,-11.624 9.423,-21.048 21.048,-21.048c11.625,0 21.049,9.424 21.049,21.048" style="fill:#f1f1f1;fill-rule:nonzero;"/><path d="M1900.06,1026.16c0,11.625 -9.423,21.048 -21.048,21.048c-11.625,0 -21.049,-9.423 -21.049,-21.048c0,-11.625 9.424,-21.049 21.049,-21.049c11.625,0 21.048,9.424 21.048,21.049" style="fill:#f1f1f1;fill-rule:nonzero;"/><path d="M1589.3,566.37c0,6.974 -5.653,12.627 -12.627,12.627c-6.973,0 -12.627,-5.653 -12.627,-12.627c0,-6.973 5.654,-12.627 12.627,-12.627c6.974,0 12.627,5.654 12.627,12.627" style="fill:#f1f1f1;fill-rule:nonzero;"/><path d="M1353.1,449.22c0,6.974 -5.653,12.628 -12.627,12.628c-6.973,0 -12.627,-5.654 -12.627,-12.628c0,-6.973 5.654,-12.627 12.627,-12.627c6.974,0 12.627,5.654 12.627,12.627" style="fill:#f1f1f1;fill-rule:nonzero;"/><path d="M1105.2,495.474c0,6.973 -5.653,12.627 -12.627,12.627c-6.974,0 -12.627,-5.654 -12.627,-12.627c0,-6.974 5.653,-12.627 12.627,-12.627c6.974,0 12.627,5.653 12.627,12.627" style="fill:#f1f1f1;fill-rule:nonzero;"/><path d="M922.55,418.329c0,6.973 -5.653,12.627 -12.627,12.627c-6.973,0 -12.627,-5.654 -12.627,-12.627c0,-6.974 5.654,-12.627 12.627,-12.627c6.974,0 12.627,5.653 12.627,12.627" style="fill:#f1f1f1;fill-rule:nonzero;"/><path d="M827.532,350.752c0,5.003 -4.055,9.058 -9.058,9.058c-5.002,0 -9.057,-4.055 -9.057,-9.058c0,-5.002 4.055,-9.058 9.057,-9.058c5.003,0 9.058,4.056 9.058,9.058" style="fill:#f1f1f1;fill-rule:nonzero;"/><path d="M541.758,504.531c0,5.003 -4.055,9.058 -9.058,9.058c-5.002,0 -9.057,-4.055 -9.057,-9.058c0,-5.003 4.055,-9.058 9.057,-9.058c5.003,0 9.058,4.055 9.058,9.058" style="fill:#f1f1f1;fill-rule:nonzero;"/><path d="M191.732,418.394c0,5.003 -4.055,9.058 -9.058,9.058c-5.001,0 -9.057,-4.055 -9.057,-9.058c0,-5.002 4.056,-9.057 9.057,-9.057c5.003,0 9.058,4.055 9.058,9.057" style="fill:#f1f1f1;fill-rule:nonzero;"/><path d="M142.42,648.343c0,5.003 -4.055,9.058 -9.057,9.058c-5.002,0 -9.058,-4.055 -9.058,-9.058c0,-5.003 4.056,-9.058 9.058,-9.058c5.002,0 9.057,4.055 9.057,9.058" style="fill:#f1f1f1;fill-rule:nonzero;"/><path d="M106.55,862.335c0,5.002 -4.055,9.058 -9.058,9.058c-5.002,0 -9.057,-4.056 -9.057,-9.058c0,-5.003 4.055,-9.058 9.057,-9.058c5.003,0 9.058,4.055 9.058,9.058" style="fill:#f1f1f1;fill-rule:nonzero;"/><path d="M355.773,979.387c0,5.003 -4.055,9.058 -9.058,9.058c-5.002,0 -9.057,-4.055 -9.057,-9.058c0,-5.002 4.055,-9.057 9.057,-9.057c5.003,0 9.058,4.055 9.058,9.057" style="fill:#f1f1f1;fill-rule:nonzero;"/><path d="M1098,1021.06c0,5.003 -4.055,9.058 -9.058,9.058c-5.001,0 -9.057,-4.055 -9.057,-9.058c0,-5.002 4.056,-9.057 9.057,-9.057c5.003,0 9.058,4.055 9.058,9.057" style="fill:#f1f1f1;fill-rule:nonzero;"/><path d="M106.55,862.335c0,5.002 -4.055,9.058 -9.058,9.058c-5.002,0 -9.057,-4.056 -9.057,-9.058c0,-5.003 4.055,-9.058 9.057,-9.058c5.003,0 9.058,4.055 9.058,9.058" style="fill:#f1f1f1;fill-rule:nonzero;"/><path d="M421.271,448.342c0,6.92 -5.61,12.53 -12.529,12.53c-6.921,0 -12.531,-5.61 -12.531,-12.53c0,-6.92 5.61,-12.53 12.531,-12.53c6.919,0 12.529,5.61 12.529,12.53" style="fill:#f1f1f1;fill-rule:nonzero;"/><path d="M847.964,64.842c0,6.92 -5.609,12.53 -12.529,12.53c-6.921,0 -12.531,-5.61 -12.531,-12.53c0,-6.92 5.61,-12.53 12.531,-12.53c6.92,0 12.529,5.61 12.529,12.53" style="fill:#f1f1f1;fill-rule:nonzero;"/><path d="M583.461,603.121c0,6.973 -5.653,12.627 -12.627,12.627c-6.973,0 -12.627,-5.654 -12.627,-12.627c0,-6.974 5.654,-12.627 12.627,-12.627c6.974,0 12.627,5.653 12.627,12.627" style="fill:#f1f1f1;fill-rule:nonzero;"/><path d="M1857.96,880.2c0,5.003 -4.055,9.058 -9.057,9.058c-5.002,0 -9.058,-4.055 -9.058,-9.058c0,-5.002 4.056,-9.057 9.058,-9.057c5.002,0 9.057,4.055 9.057,9.057" style="fill:#f1f1f1;fill-rule:nonzero;"/><path d="M1745.49,524.942c0,5.003 -4.055,9.058 -9.057,9.058c-5.002,0 -9.057,-4.055 -9.057,-9.058c0,-5.002 4.055,-9.057 9.057,-9.057c5.002,0 9.057,4.055 9.057,9.057" style="fill:#f1f1f1;fill-rule:nonzero;"/><path d="M1776.14,677.198c0,5.003 -4.055,9.058 -9.057,9.058c-5.003,0 -9.058,-4.055 -9.058,-9.058c0,-5.003 4.055,-9.058 9.058,-9.058c5.002,0 9.057,4.055 9.057,9.058" style="fill:#f1f1f1;fill-rule:nonzero;"/><path d="M1177.44,700.648c0,5.002 -4.055,9.057 -9.057,9.057c-5.002,0 -9.057,-4.055 -9.057,-9.057c0,-5.003 4.055,-9.058 9.057,-9.058c5.002,0 9.057,4.055 9.057,9.058" style="fill:#f1f1f1;fill-rule:nonzero;"/><path d="M854.758,656.442c0,6.87 -5.569,12.439 -12.439,12.439c-6.87,0 -12.439,-5.569 -12.439,-12.439c0,-6.87 5.569,-12.439 12.439,-12.439c6.87,0 12.439,5.569 12.439,12.439" style="fill:#f1f1f1;fill-rule:nonzero;"/><path d="M894.046,795.15c0,10.041 -8.139,18.181 -18.181,18.181c-10.041,0 -18.181,-8.14 -18.181,-18.181c0,-10.042 8.14,-18.182 18.181,-18.182c10.042,0 18.181,8.14 18.181,18.182" style="fill:#f1f1f1;fill-rule:nonzero;"/><path d="M1084.86,171.004c-0.109,11.624 -9.62,20.96 -21.244,20.851c-11.624,-0.107 -20.96,-9.619 -20.852,-21.243c0.108,-11.624 9.62,-20.959 21.244,-20.852c11.624,0.109 20.959,9.62 20.852,21.244" style="fill:#f1f1f1;fill-rule:nonzero;"/><path d="M1363.26,270.601c-0.108,11.625 -9.619,20.96 -21.243,20.852c-11.624,-0.108 -20.96,-9.619 -20.852,-21.244c0.108,-11.624 9.619,-20.959 21.243,-20.851c11.625,0.108 20.96,9.619 20.852,21.243" style="fill:#f1f1f1;fill-rule:nonzero;"/><path d="M1234.42,211.307c-0.046,5.002 -4.139,9.019 -9.141,8.972c-5.002,-0.046 -9.019,-4.139 -8.972,-9.141c0.046,-5.002 4.139,-9.019 9.141,-8.972c5.002,0.046 9.018,4.139 8.972,9.141" style="fill:#f1f1f1;fill-rule:nonzero;"/><path d="M1126.89,260.276c-0.065,6.92 -5.726,12.477 -12.645,12.413c-6.921,-0.064 -12.478,-5.727 -12.414,-12.646c0.065,-6.92 5.726,-12.478 12.647,-12.413c6.919,0.064 12.477,5.726 12.412,12.646" style="fill:#f1f1f1;fill-rule:nonzero;"/><path d="M1770.09,73.557c0.108,11.624 9.619,20.96 21.244,20.851c11.624,-0.108 20.959,-9.619 20.851,-21.243c-0.108,-11.625 -9.619,-20.96 -21.243,-20.852c-11.625,0.108 -20.96,9.619 -20.852,21.244" style="fill:#f1f1f1;fill-rule:nonzero;"/><path d="M1620.53,113.859c0.047,5.002 4.14,9.019 9.142,8.972c5.002,-0.046 9.018,-4.138 8.972,-9.14c-0.046,-5.003 -4.139,-9.019 -9.141,-8.973c-5.002,0.046 -9.019,4.139 -8.973,9.141" style="fill:#f1f1f1;fill-rule:nonzero;"/><path d="M1728.07,162.828c0.065,6.92 5.727,12.478 12.646,12.413c6.92,-0.064 12.477,-5.726 12.414,-12.646c-0.065,-6.92 -5.727,-12.477 -12.647,-12.413c-6.919,0.065 -12.478,5.727 -12.413,12.646" style="fill:#f1f1f1;fill-rule:nonzero;"/><path d="M1275.21,310.28c-0.065,6.973 -5.77,12.574 -12.744,12.509c-6.972,-0.065 -12.573,-5.77 -12.509,-12.744c0.065,-6.973 5.772,-12.574 12.745,-12.508c6.973,0.064 12.574,5.771 12.508,12.743" style="fill:#f1f1f1;fill-rule:nonzero;"/><path d="M836.918,220.278c-0.047,5.002 -4.14,9.019 -9.142,8.972c-5.002,-0.046 -9.019,-4.138 -8.973,-9.14c0.047,-5.003 4.14,-9.019 9.142,-8.973c5.002,0.046 9.019,4.139 8.973,9.141" style="fill:#f1f1f1;fill-rule:nonzero;"/><path d="M365.074,181.356c-0.108,11.624 -9.618,20.96 -21.243,20.851c-11.624,-0.108 -20.96,-9.619 -20.851,-21.243c0.108,-11.624 9.618,-20.96 21.243,-20.852c11.624,0.108 20.96,9.62 20.851,21.244" style="fill:#f1f1f1;fill-rule:nonzero;"/><path d="M986.867,273.141c-0.108,11.624 -9.619,20.96 -21.243,20.851c-11.625,-0.108 -20.96,-9.619 -20.852,-21.243c0.108,-11.624 9.619,-20.959 21.244,-20.852c11.624,0.109 20.959,9.62 20.851,21.244" style="fill:#f1f1f1;fill-rule:nonzero;"/><path d="M553.476,211.721c-0.109,11.624 -9.619,20.96 -21.244,20.851c-11.624,-0.108 -20.96,-9.619 -20.851,-21.243c0.108,-11.624 9.619,-20.96 21.243,-20.852c11.624,0.108 20.96,9.62 20.852,21.244" style="fill:#f1f1f1;fill-rule:nonzero;"/><path d="M557.629,82.701c-0.108,11.624 -9.618,20.96 -21.243,20.851c-11.624,-0.108 -20.96,-9.619 -20.852,-21.243c0.109,-11.624 9.619,-20.959 21.244,-20.852c11.624,0.109 20.96,9.62 20.851,21.244" style="fill:#f1f1f1;fill-rule:nonzero;"/><path d="M215.713,88.042c-0.108,11.624 -9.619,20.96 -21.243,20.851c-11.624,-0.108 -20.96,-9.619 -20.852,-21.243c0.109,-11.625 9.619,-20.96 21.244,-20.852c11.624,0.108 20.96,9.619 20.851,21.244" style="fill:#f1f1f1;fill-rule:nonzero;"/><path d="M81.746,467.866c-0.108,11.624 -9.619,20.96 -21.243,20.851c-11.625,-0.108 -20.96,-9.619 -20.852,-21.243c0.108,-11.625 9.619,-20.96 21.244,-20.852c11.623,0.108 20.959,9.619 20.851,21.244" style="fill:#f1f1f1;fill-rule:nonzero;"/><path d="M306.204,509.962c-0.109,11.625 -9.619,20.961 -21.243,20.851c-11.625,-0.107 -20.961,-9.618 -20.852,-21.243c0.108,-11.624 9.619,-20.959 21.244,-20.851c11.623,0.108 20.959,9.619 20.851,21.243" style="fill:#f1f1f1;fill-rule:nonzero;"/><path d="M21.047,657.597c-0.108,11.624 -9.618,20.96 -21.243,20.851c-11.624,-0.107 -20.96,-9.619 -20.851,-21.243c0.108,-11.624 9.618,-20.959 21.243,-20.852c11.624,0.109 20.96,9.62 20.851,21.244" style="fill:#f1f1f1;fill-rule:nonzero;"/><path d="M638.165,247.883c-0.047,5.002 -4.14,9.019 -9.141,8.972c-5.002,-0.046 -9.02,-4.139 -8.973,-9.141c0.046,-5.002 4.139,-9.019 9.141,-8.972c5.002,0.046 9.019,4.139 8.973,9.141" style="fill:#f1f1f1;fill-rule:nonzero;"/><path d="M344.866,303.092c-0.047,5.002 -4.139,9.019 -9.141,8.972c-5.002,-0.046 -9.019,-4.139 -8.973,-9.14c0.047,-5.003 4.14,-9.02 9.142,-8.973c5.002,0.046 9.019,4.139 8.972,9.141" style="fill:#f1f1f1;fill-rule:nonzero;"/><path d="M423.044,784.515c-0.108,11.625 -9.619,20.96 -21.243,20.852c-11.624,-0.108 -20.96,-9.62 -20.852,-21.244c0.109,-11.624 9.619,-20.959 21.244,-20.851c11.624,0.108 20.959,9.619 20.851,21.243" style="fill:#f1f1f1;fill-rule:nonzero;"/><path d="M805.497,938.274c-0.108,11.625 -9.619,20.96 -21.243,20.852c-11.624,-0.108 -20.96,-9.62 -20.852,-21.244c0.109,-11.624 9.619,-20.959 21.244,-20.851c11.624,0.108 20.96,9.619 20.851,21.243" style="fill:#f1f1f1;fill-rule:nonzero;"/><path d="M1367.91,817.073c-0.108,11.625 -9.619,20.96 -21.243,20.852c-11.625,-0.108 -20.96,-9.62 -20.852,-21.244c0.108,-11.624 9.619,-20.959 21.244,-20.851c11.624,0.108 20.959,9.619 20.851,21.243" style="fill:#f1f1f1;fill-rule:nonzero;"/><path d="M972.18,890.379c-0.047,5.002 -4.14,9.019 -9.142,8.972c-5.002,-0.046 -9.019,-4.139 -8.972,-9.141c0.046,-5.002 4.14,-9.019 9.141,-8.972c5.002,0.046 9.019,4.139 8.973,9.141" style="fill:#f1f1f1;fill-rule:nonzero;"/><path d="M560.182,860.014c-0.047,5.002 -4.139,9.019 -9.141,8.972c-5.002,-0.046 -9.019,-4.139 -8.973,-9.141c0.046,-5.002 4.139,-9.019 9.141,-8.972c5.002,0.046 9.019,4.139 8.973,9.141" style="fill:#f1f1f1;fill-rule:nonzero;"/><path d="M605.177,953.942c-0.047,5.002 -4.14,9.019 -9.142,8.973c-5.002,-0.047 -9.019,-4.14 -8.972,-9.142c0.046,-5.002 4.139,-9.019 9.141,-8.972c5.002,0.046 9.019,4.139 8.973,9.141" style="fill:#f1f1f1;fill-rule:nonzero;"/><path d="M1325.62,843.574c-0.046,5.002 -4.139,9.018 -9.141,8.972c-5.002,-0.046 -9.019,-4.139 -8.972,-9.141c0.046,-5.002 4.139,-9.019 9.141,-8.972c5.002,0.046 9.018,4.138 8.972,9.141" style="fill:#f1f1f1;fill-rule:nonzero;"/><path d="M1371.19,963.098c-0.046,5.002 -4.139,9.018 -9.141,8.972c-5.002,-0.046 -9.018,-4.139 -8.972,-9.141c0.046,-5.002 4.139,-9.019 9.141,-8.972c5.002,0.046 9.019,4.138 8.972,9.141" style="fill:#f1f1f1;fill-rule:nonzero;"/><path d="M1675.52,862.17c-0.046,5.002 -4.139,9.019 -9.141,8.972c-5.002,-0.046 -9.018,-4.139 -8.972,-9.141c0.046,-5.002 4.139,-9.019 9.141,-8.972c5.002,0.046 9.019,4.139 8.972,9.141" style="fill:#f1f1f1;fill-rule:nonzero;"/><path d="M1598.11,737.864c-0.046,5.002 -4.139,9.018 -9.141,8.972c-5.002,-0.046 -9.019,-4.139 -8.972,-9.141c0.046,-5.002 4.139,-9.019 9.141,-8.972c5.002,0.046 9.018,4.138 8.972,9.141" style="fill:#f1f1f1;fill-rule:nonzero;"/></g><g id="huesos"><path d="M933.433,478.475c0,0 10.006,-16.908 21.738,-13.802c14.139,3.742 19.323,13.285 13.975,27.259c-5.348,13.975 -6.038,20.359 -1.035,35.024c5.003,14.665 18.46,59.522 18.46,59.522c0,0 2.933,7.936 14.148,15.7c11.214,7.764 17.425,10.352 17.77,19.841c0.345,9.489 -9.316,28.467 -32.435,20.531c0,0 -8.627,15.527 -21.911,11.732c-13.285,-3.796 -18.288,-11.56 -14.838,-23.637c3.451,-12.077 10.007,-18.633 4.313,-36.576c-5.693,-17.943 -20.185,-59.004 -20.185,-59.004c0,0 -6.211,-12.768 -19.841,-21.912c-10.949,-7.345 -17.081,-19.141 -6.901,-32.262c7.763,-10.007 26.742,-2.416 26.742,-2.416" style="fill:#f1f1f1;fill-rule:nonzero;"/><path d="M713.71,302.59c0,0 17.849,8.212 15.968,20.202c-2.267,14.448 -11.225,20.588 -25.676,16.707c-14.452,-3.881 -20.873,-3.911 -34.944,2.576c-14.072,6.487 -57.306,24.49 -57.306,24.49c0,0 -7.592,3.735 -14.16,15.69c-6.567,11.953 -8.502,18.398 -17.906,19.718c-9.403,1.32 -29.275,-6.336 -23.761,-30.15c0,0 -16.333,-6.981 -13.925,-20.586c2.407,-13.605 9.615,-19.381 21.983,-17.192c12.368,2.189 19.564,8.035 36.825,0.524c17.262,-7.51 56.614,-26.153 56.614,-26.153c0,0 12.06,-7.493 19.752,-21.991c6.179,-11.647 17.282,-18.961 31.381,-10.186c10.752,6.692 5.155,26.351 5.155,26.351" style="fill:#f1f1f1;fill-rule:nonzero;"/><path d="M1193.11,440.965c0,0 -2.66,-19.467 8.464,-24.32c13.404,-5.848 23.395,-1.591 27.884,12.683c4.488,14.274 7.913,19.705 20.943,28.091c13.03,8.385 51.439,35.18 51.439,35.18c0,0 7.228,4.398 20.84,3.517c13.611,-0.882 20.085,-2.711 26.25,4.511c6.165,7.222 10.381,28.096 -12.666,36.237c0,0 2.884,17.527 -9.885,22.804c-12.769,5.277 -21.513,2.3 -26.31,-9.307c-4.797,-11.608 -3.732,-20.818 -19.339,-31.344c-15.607,-10.525 -52.47,-33.703 -52.47,-33.703c0,0 -12.797,-6.148 -29.158,-4.848c-13.144,1.044 -25.277,-4.391 -25.449,-20.998c-0.131,-12.664 19.457,-18.503 19.457,-18.503" style="fill:#f1f1f1;fill-rule:nonzero;"/><path d="M1230.16,60.166c0,0 -2.66,-19.467 8.464,-24.32c13.404,-5.848 23.395,-1.591 27.884,12.683c4.488,14.274 7.913,19.705 20.943,28.091c13.03,8.385 51.439,35.18 51.439,35.18c0,0 7.228,4.398 20.84,3.517c13.611,-0.882 20.085,-2.711 26.25,4.511c6.165,7.222 10.381,28.096 -12.666,36.237c0,0 2.884,17.527 -9.885,22.804c-12.769,5.277 -21.513,2.3 -26.31,-9.308c-4.797,-11.607 -3.732,-20.818 -19.339,-31.343c-15.606,-10.525 -52.47,-33.703 -52.47,-33.703c0,0 -12.797,-6.148 -29.158,-4.848c-13.144,1.044 -25.277,-4.391 -25.449,-20.998c-0.131,-12.664 19.457,-18.503 19.457,-18.503" style="fill:#f1f1f1;fill-rule:nonzero;"/><path d="M561.939,742.566c0,0 -17.499,-8.933 -15.13,-20.836c2.854,-14.345 12.054,-20.114 26.335,-15.646c14.281,4.466 20.695,4.758 35.02,-1.15c14.325,-5.908 58.256,-22.135 58.256,-22.135c0,0 7.738,-3.421 14.788,-15.097c7.05,-11.677 9.246,-18.037 18.695,-18.973c9.449,-0.936 28.992,7.525 22.512,31.093c0,0 16.035,7.642 13.075,21.137c-2.961,13.496 -10.397,18.973 -22.666,16.282c-12.268,-2.691 -19.22,-8.826 -36.773,-2.025c-17.553,6.801 -57.633,23.824 -57.633,23.824c0,0 -12.355,6.994 -20.632,21.167c-6.648,11.386 -18.04,18.241 -31.77,8.898c-10.471,-7.125 -4.077,-26.539 -4.077,-26.539" style="fill:#f1f1f1;fill-rule:nonzero;"/><path d="M151.031,530.5c0,0 1.221,-19.609 13.082,-22.179c14.293,-3.098 23.25,3.041 24.844,17.919c1.593,14.878 3.882,20.877 15.009,31.662c11.126,10.784 43.515,44.611 43.515,44.611c0,0 6.222,5.733 19.74,7.547c13.519,1.813 20.227,1.293 24.851,9.586c4.623,8.293 4.651,29.59 -19.547,33.038c0,0 -0.62,17.751 -14.177,20.414c-13.558,2.662 -21.545,-1.975 -23.965,-14.301c-2.421,-12.324 0.436,-21.145 -12.796,-34.534c-13.232,-13.39 -44.816,-43.366 -44.816,-43.366c0,0 -11.338,-8.545 -27.636,-10.489c-13.091,-1.561 -23.918,-9.278 -20.821,-25.593c2.363,-12.442 22.717,-14.315 22.717,-14.315" style="fill:#f1f1f1;fill-rule:nonzero;"/><path d="M-52.63,143.637c0,0 -18.259,-7.254 -17.016,-19.327c1.498,-14.548 10.117,-21.154 24.754,-18.044c14.636,3.109 21.05,2.798 34.758,-4.426c13.708,-7.224 55.926,-27.495 55.926,-27.495c0,0 7.383,-4.132 13.309,-16.417c5.924,-12.286 7.515,-18.823 16.834,-20.641c9.32,-1.816 29.57,4.776 25.327,28.847c0,0 16.68,6.106 14.997,19.82c-1.683,13.713 -8.573,19.864 -21.041,18.333c-12.466,-1.529 -19.962,-6.986 -36.801,1.429c-16.839,8.416 -55.147,29.119 -55.147,29.119c0,0 -11.645,8.121 -18.558,23.007c-5.553,11.958 -16.252,19.851 -30.797,11.836c-11.092,-6.113 -6.545,-26.041 -6.545,-26.041" style="fill:#f1f1f1;fill-rule:nonzero;"/><path d="M43.021,323.812c0,0 -14.698,-13.037 -9.419,-23.966c6.361,-13.169 16.714,-16.446 29.418,-8.539c12.704,7.907 18.84,9.797 34.189,7.672c15.348,-2.125 61.945,-6.813 61.945,-6.813c0,0 8.349,-1.371 18.103,-10.906c9.754,-9.534 13.474,-15.14 22.856,-13.676c9.381,1.465 26.178,14.557 13.993,35.746c0,0 13.605,11.42 7.354,23.742c-6.251,12.32 -14.824,15.758 -26.025,10.074c-11.202,-5.682 -16.392,-13.365 -35.09,-11.185c-18.698,2.181 -61.766,8.605 -61.766,8.605c0,0 -13.714,3.672 -25.282,15.315c-9.292,9.354 -22.039,13.132 -32.986,0.644c-8.349,-9.523 2.71,-26.713 2.71,-26.713" style="fill:#f1f1f1;fill-rule:nonzero;"/><path d="M0.76,1011.48c0,0 -17.567,-8.799 -15.29,-20.719c2.743,-14.366 11.899,-20.206 26.214,-15.849c14.315,4.357 20.731,4.599 35.01,-1.419c14.278,-6.018 58.084,-22.582 58.084,-22.582c0,0 7.711,-3.482 14.671,-15.212c6.96,-11.731 9.106,-18.107 18.548,-19.116c9.441,-1.008 29.049,7.301 22.751,30.918c0,0 16.093,7.519 13.237,21.037c-2.857,13.517 -10.25,19.052 -22.54,16.455c-12.289,-2.596 -19.287,-8.677 -36.788,-1.741c-17.5,6.935 -57.447,24.267 -57.447,24.267c0,0 -12.3,7.089 -20.468,21.325c-6.561,11.436 -17.9,18.379 -31.701,9.143c-10.525,-7.044 -4.281,-26.507 -4.281,-26.507" style="fill:#f1f1f1;fill-rule:nonzero;"/><path d="M1629.33,653.572c0,0 18.28,7.2 17.074,19.276c-1.454,14.552 -10.054,21.184 -24.7,18.119c-14.646,-3.065 -21.058,-2.735 -34.744,4.53c-13.687,7.264 -55.843,27.662 -55.843,27.662c0,0 -7.372,4.154 -13.26,16.458c-5.888,12.302 -7.458,18.845 -16.773,20.69c-9.314,1.845 -29.584,-4.686 -25.413,-28.77c0,0 -16.698,-6.057 -15.057,-19.775c1.642,-13.719 8.514,-19.89 20.986,-18.397c12.471,1.493 19.984,6.927 36.797,-1.539c16.813,-8.465 55.059,-29.284 55.059,-29.284c0,0 11.621,-8.156 18.489,-23.063c5.517,-11.975 16.192,-19.899 30.761,-11.928c11.111,6.079 6.624,26.021 6.624,26.021" style="fill:#f1f1f1;fill-rule:nonzero;"/><path d="M1975.91,721.705c0,0 18.28,7.2 17.073,19.276c-1.454,14.553 -10.053,21.185 -24.7,18.119c-14.645,-3.065 -21.057,-2.735 -34.743,4.53c-13.687,7.264 -55.844,27.662 -55.844,27.662c0,0 -7.372,4.155 -13.259,16.458c-5.889,12.303 -7.459,18.846 -16.773,20.69c-9.315,1.846 -29.585,-4.686 -25.413,-28.77c0,0 -16.699,-6.056 -15.058,-19.775c1.642,-13.718 8.515,-19.889 20.987,-18.396c12.471,1.492 19.983,6.926 36.797,-1.539c16.813,-8.466 55.058,-29.285 55.058,-29.285c0,0 11.622,-8.155 18.49,-23.063c5.517,-11.974 16.192,-19.899 30.76,-11.928c11.111,6.08 6.625,26.021 6.625,26.021" style="fill:#f1f1f1;fill-rule:nonzero;"/><path d="M1885.29,440.895c0,0 6.043,18.694 -4.053,25.429c-12.167,8.116 -22.75,5.682 -29.681,-7.58c-6.929,-13.261 -11.255,-18.005 -25.558,-23.967c-14.301,-5.963 -56.825,-25.583 -56.825,-25.583c0,0 -7.89,-3.058 -21.134,0.204c-13.243,3.261 -19.295,6.202 -26.634,0.177c-7.339,-6.025 -15.162,-25.833 6.094,-37.9c0,0 -5.922,-16.747 5.719,-24.189c11.641,-7.44 20.772,-6.048 27.537,4.535c6.764,10.583 7.335,19.837 24.55,27.453c17.215,7.615 57.581,23.947 57.581,23.947c0,0 13.68,3.801 29.558,-0.357c12.754,-3.34 25.654,-0.124 28.745,16.193c2.357,12.444 -15.899,21.638 -15.899,21.638" style="fill:#f1f1f1;fill-rule:nonzero;"/><path d="M1883.95,57.786c0,0 6.043,18.695 -4.054,25.43c-12.166,8.115 -22.75,5.682 -29.68,-7.58c-6.93,-13.262 -11.256,-18.006 -25.558,-23.968c-14.302,-5.963 -56.826,-25.583 -56.826,-25.583c0,0 -7.89,-3.058 -21.133,0.204c-13.244,3.261 -19.296,6.202 -26.635,0.177c-7.339,-6.025 -15.162,-25.832 6.095,-37.9c0,0 -5.923,-16.746 5.718,-24.188c11.641,-7.441 20.773,-6.049 27.537,4.534c6.765,10.583 7.336,19.838 24.551,27.453c17.215,7.616 57.581,23.947 57.581,23.947c0,0 13.679,3.801 29.557,-0.357c12.755,-3.34 25.655,-0.123 28.745,16.193c2.357,12.444 -15.898,21.638 -15.898,21.638" style="fill:#f1f1f1;fill-rule:nonzero;"/><path d="M1608.69,172.072c0,0 19.633,0.744 22.491,12.539c3.443,14.214 -2.477,23.318 -17.312,25.273c-14.835,1.953 -20.777,4.387 -31.288,15.772c-10.511,11.384 -43.543,44.584 -43.543,44.584c0,0 -5.581,6.359 -7.065,19.917c-1.485,13.559 -0.802,20.253 -8.982,25.076c-8.178,4.823 -29.467,5.368 -33.502,-18.739c0,0 -17.761,-0.189 -20.752,-13.678c-2.991,-13.489 1.453,-21.586 13.715,-24.305c12.263,-2.719 21.151,-0.077 34.215,-13.63c13.065,-13.553 42.266,-45.854 42.266,-45.854c0,0 8.267,-11.543 9.814,-27.883c1.244,-13.125 8.696,-24.136 25.081,-21.435c12.497,2.06 14.862,22.363 14.862,22.363" style="fill:#f1f1f1;fill-rule:nonzero;"/><path d="M341.585,85.63c0,0 1.221,-19.609 13.082,-22.18c14.293,-3.098 23.251,3.041 24.844,17.919c1.594,14.879 3.883,20.878 15.01,31.662c11.126,10.784 43.514,44.611 43.514,44.611c0,0 6.222,5.734 19.741,7.547c13.518,1.813 20.226,1.293 24.85,9.586c4.623,8.294 4.651,29.59 -19.547,33.038c0,0 -0.62,17.752 -14.177,20.414c-13.557,2.663 -21.544,-1.975 -23.965,-14.3c-2.421,-12.325 0.436,-21.146 -12.796,-34.535c-13.232,-13.39 -44.816,-43.366 -44.816,-43.366c0,0 -11.338,-8.544 -27.635,-10.489c-13.092,-1.561 -23.919,-9.277 -20.821,-25.592c2.362,-12.443 22.716,-14.315 22.716,-14.315" style="fill:#f1f1f1;fill-rule:nonzero;"/><path d="M406.868,898.946c0,0 1.22,-19.609 13.081,-22.18c14.293,-3.098 23.251,3.042 24.845,17.92c1.593,14.878 3.882,20.877 15.009,31.661c11.126,10.784 43.514,44.612 43.514,44.612c0,0 6.222,5.733 19.741,7.546c13.519,1.814 20.227,1.293 24.85,9.587c4.623,8.293 4.652,29.589 -19.546,33.037c0,0 -0.62,17.752 -14.177,20.415c-13.558,2.662 -21.545,-1.976 -23.965,-14.301c-2.421,-12.325 0.436,-21.145 -12.796,-34.535c-13.233,-13.389 -44.816,-43.366 -44.816,-43.366c0,0 -11.338,-8.544 -27.636,-10.488c-13.092,-1.562 -23.919,-9.277 -20.821,-25.593c2.362,-12.443 22.717,-14.315 22.717,-14.315" style="fill:#f1f1f1;fill-rule:nonzero;"/><path d="M1158.84,951.821c0,0 1.221,-19.608 13.081,-22.18c14.294,-3.097 23.251,3.042 24.845,17.92c1.594,14.879 3.882,20.878 15.009,31.661c11.126,10.785 43.515,44.612 43.515,44.612c0,0 6.221,5.734 19.74,7.547c13.518,1.813 20.227,1.292 24.851,9.587c4.623,8.293 4.651,29.589 -19.547,33.037c0,0 -0.62,17.752 -14.177,20.415c-13.558,2.662 -21.545,-1.976 -23.965,-14.301c-2.421,-12.325 0.436,-21.146 -12.796,-34.536c-13.232,-13.389 -44.816,-43.365 -44.816,-43.365c0,0 -11.339,-8.545 -27.636,-10.489c-13.092,-1.561 -23.919,-9.277 -20.821,-25.592c2.363,-12.443 22.717,-14.316 22.717,-14.316" style="fill:#f1f1f1;fill-rule:nonzero;"/><path d="M1612.25,906.531c0,0 19.425,2.948 20.938,14.99c1.823,14.511 -5.083,22.891 -20.044,23.165c-14.961,0.273 -21.138,2.024 -32.862,12.153c-11.725,10.131 -48.281,39.406 -48.281,39.406c0,0 -6.26,5.691 -9.26,18.997c-3,13.306 -3.074,20.034 -11.744,23.907c-8.669,3.872 -29.885,2.02 -31.182,-22.388c0,0 -17.628,-2.185 -19.083,-15.925c-1.455,-13.74 3.871,-21.286 16.361,-22.609c12.491,-1.322 21.025,2.303 35.531,-9.696c14.505,-11.997 47.154,-40.81 47.154,-40.81c0,0 9.512,-10.54 12.888,-26.602c2.711,-12.903 11.353,-23.006 27.332,-18.479c12.185,3.452 12.252,23.891 12.252,23.891" style="fill:#f1f1f1;fill-rule:nonzero;"/></g><g id="patas"><g><path d="M671.653,513.364c3.474,6.083 1.36,13.83 -4.723,17.304c-6.082,3.474 -13.829,1.359 -17.303,-4.723c-3.474,-6.082 -1.36,-13.829 4.723,-17.303c6.082,-3.475 13.829,-1.36 17.303,4.722" style="fill:#f1f1f1;fill-rule:nonzero;"/><path d="M685.027,481.353c3.474,6.083 1.359,13.83 -4.723,17.304c-6.082,3.474 -13.83,1.36 -17.304,-4.723c-3.474,-6.082 -1.359,-13.829 4.724,-17.304c6.081,-3.473 13.829,-1.359 17.303,4.723" style="fill:#f1f1f1;fill-rule:nonzero;"/><path d="M714.79,464.353c3.474,6.083 1.36,13.83 -4.723,17.304c-6.082,3.474 -13.829,1.36 -17.303,-4.723c-3.474,-6.082 -1.36,-13.829 4.722,-17.303c6.083,-3.474 13.83,-1.36 17.304,4.722" style="fill:#f1f1f1;fill-rule:nonzero;"/><path d="M749.628,468.298c3.474,6.082 1.359,13.829 -4.723,17.303c-6.083,3.474 -13.829,1.36 -17.304,-4.723c-3.474,-6.082 -1.359,-13.829 4.723,-17.303c6.083,-3.474 13.829,-1.36 17.304,4.723" style="fill:#f1f1f1;fill-rule:nonzero;"/><path d="M681.427,546.558c-9.075,-19.075 -4.136,-40.787 13.903,-52.245c18.033,-11.454 39.539,-5.871 52.715,10.104c7.623,9.241 12.183,24.922 -0.23,32.042c-7.183,4.12 -13.39,-0.525 -17.226,-2.678c-8.78,-4.928 -15.864,2.635 -16.341,11.277c-0.139,2.505 0.33,5.251 -0.806,7.593c-1.745,3.598 -6.382,5.065 -9.907,6.119c-10.535,3.15 -17.832,-3.226 -22.108,-12.212" style="fill:#f1f1f1;fill-rule:nonzero;"/></g><path d="M1054.68,346.174c-2.67,6.476 -10.084,9.56 -16.56,6.89c-6.476,-2.67 -9.562,-10.084 -6.891,-16.56c2.67,-6.476 10.085,-9.561 16.56,-6.89c6.475,2.67 9.561,10.083 6.891,16.56" style="fill:#f1f1f1;fill-rule:nonzero;"/><path d="M1088.16,337.086c-2.67,6.476 -10.084,9.561 -16.56,6.891c-6.476,-2.67 -9.561,-10.084 -6.891,-16.56c2.67,-6.476 10.085,-9.561 16.56,-6.891c6.476,2.671 9.561,10.084 6.891,16.56" style="fill:#f1f1f1;fill-rule:nonzero;"/><path d="M1119.85,350.152c-2.67,6.475 -10.084,9.561 -16.56,6.891c-6.476,-2.67 -9.561,-10.084 -6.891,-16.56c2.67,-6.476 10.084,-9.561 16.56,-6.892c6.476,2.671 9.561,10.085 6.891,16.561" style="fill:#f1f1f1;fill-rule:nonzero;"/><path d="M1138.11,380.078c-2.67,6.476 -10.084,9.561 -16.56,6.89c-6.476,-2.67 -9.562,-10.083 -6.891,-16.559c2.67,-6.477 10.084,-9.561 16.56,-6.891c6.475,2.67 9.561,10.084 6.891,16.56" style="fill:#f1f1f1;fill-rule:nonzero;"/><path d="M1034.47,374.262c9.491,-18.872 29.665,-28.298 49.781,-21.087c20.111,7.208 28.902,27.614 24.376,47.821c-2.618,11.689 -12.201,24.913 -25.44,19.483c-7.662,-3.143 -7.803,-10.894 -8.458,-15.244c-1.497,-9.957 -11.816,-10.908 -18.932,-5.982c-2.063,1.429 -3.944,3.484 -6.489,4.024c-3.912,0.831 -7.917,-1.929 -10.913,-4.066c-8.95,-6.385 -8.396,-16.059 -3.925,-24.949" style="fill:#f1f1f1;fill-rule:nonzero;"/><g><path d="M443.692,646.946c1.678,6.801 8.552,10.953 15.353,9.275c6.8,-1.679 10.953,-8.552 9.274,-15.353c-1.678,-6.8 -8.552,-10.953 -15.353,-9.275c-6.8,1.679 -10.953,8.553 -9.274,15.353" style="fill:#f1f1f1;fill-rule:nonzero;"/><path d="M411.932,632.986c1.678,6.8 8.552,10.953 15.353,9.274c6.8,-1.678 10.953,-8.551 9.275,-15.352c-1.679,-6.801 -8.552,-10.953 -15.353,-9.275c-6.801,1.679 -10.953,8.552 -9.275,15.353" style="fill:#f1f1f1;fill-rule:nonzero;"/><path d="M378.655,641.198c1.678,6.801 8.552,10.954 15.353,9.275c6.8,-1.678 10.953,-8.552 9.274,-15.353c-1.678,-6.8 -8.551,-10.952 -15.353,-9.274c-6.8,1.678 -10.952,8.552 -9.274,15.352" style="fill:#f1f1f1;fill-rule:nonzero;"/><path d="M356.145,668.078c1.678,6.801 8.552,10.953 15.353,9.275c6.8,-1.678 10.953,-8.552 9.275,-15.353c-1.679,-6.8 -8.552,-10.953 -15.353,-9.274c-6.801,1.678 -10.953,8.552 -9.275,15.352" style="fill:#f1f1f1;fill-rule:nonzero;"/><path d="M459.503,677.726c-6.581,-20.074 -25.131,-32.391 -46.095,-28.25c-20.959,4.141 -32.684,23.014 -31.21,43.669c0.852,11.949 8.363,26.449 22.263,23.046c8.044,-1.969 9.335,-9.613 10.629,-13.818c2.96,-9.623 13.305,-9.031 19.61,-3.102c1.828,1.719 3.382,4.031 5.819,4.944c3.745,1.402 8.116,-0.733 11.395,-2.401c9.801,-4.984 10.689,-14.632 7.589,-24.088" style="fill:#f1f1f1;fill-rule:nonzero;"/></g><g><path d="M262.244,1071.95c1.679,6.801 8.552,10.953 15.353,9.275c6.8,-1.679 10.953,-8.552 9.275,-15.353c-1.679,-6.8 -8.552,-10.953 -15.353,-9.275c-6.801,1.679 -10.953,8.553 -9.275,15.353" style="fill:#f1f1f1;fill-rule:nonzero;"/><path d="M230.484,1058c1.679,6.8 8.552,10.953 15.353,9.274c6.801,-1.678 10.953,-8.551 9.275,-15.352c-1.679,-6.801 -8.552,-10.953 -15.353,-9.275c-6.801,1.679 -10.953,8.552 -9.275,15.353" style="fill:#f1f1f1;fill-rule:nonzero;"/><path d="M197.207,1066.21c1.679,6.801 8.552,10.954 15.353,9.275c6.801,-1.678 10.953,-8.552 9.275,-15.353c-1.679,-6.8 -8.552,-10.952 -15.353,-9.274c-6.801,1.678 -10.953,8.552 -9.275,15.352" style="fill:#f1f1f1;fill-rule:nonzero;"/><path d="M174.697,1093.09c1.679,6.801 8.552,10.953 15.353,9.275c6.801,-1.678 10.953,-8.552 9.275,-15.353c-1.679,-6.8 -8.552,-10.953 -15.353,-9.274c-6.801,1.678 -10.953,8.552 -9.275,15.352" style="fill:#f1f1f1;fill-rule:nonzero;"/><path d="M278.056,1102.74c-6.582,-20.074 -25.131,-32.391 -46.096,-28.25c-20.959,4.141 -32.683,23.014 -31.21,43.669c0.852,11.949 8.363,26.449 22.264,23.046c8.043,-1.969 9.334,-9.613 10.628,-13.818c2.96,-9.623 13.306,-9.031 19.61,-3.102c1.828,1.719 3.382,4.031 5.819,4.944c3.746,1.402 8.116,-0.733 11.396,-2.401c9.801,-4.984 10.689,-14.632 7.589,-24.088" style="fill:#f1f1f1;fill-rule:nonzero;"/></g><g><path d="M887.341,1053.08c1.822,6.763 -2.183,13.723 -8.947,15.546c-6.763,1.823 -13.723,-2.183 -15.546,-8.946c-1.822,-6.763 2.183,-13.724 8.946,-15.547c6.764,-1.822 13.724,2.184 15.547,8.947" style="fill:#f1f1f1;fill-rule:nonzero;"/><path d="M908.377,1025.49c1.822,6.763 -2.183,13.724 -8.947,15.547c-6.763,1.823 -13.723,-2.183 -15.546,-8.946c-1.822,-6.764 2.183,-13.724 8.947,-15.547c6.763,-1.822 13.723,2.183 15.546,8.946" style="fill:#f1f1f1;fill-rule:nonzero;"/><path d="M941.471,1016.58c1.823,6.763 -2.182,13.724 -8.946,15.546c-6.763,1.823 -13.723,-2.182 -15.546,-8.946c-1.823,-6.763 2.183,-13.723 8.946,-15.546c6.764,-1.823 13.724,2.182 15.546,8.946" style="fill:#f1f1f1;fill-rule:nonzero;"/><path d="M974.179,1029.2c1.822,6.763 -2.183,13.723 -8.947,15.546c-6.763,1.823 -13.723,-2.183 -15.546,-8.946c-1.822,-6.763 2.183,-13.724 8.947,-15.546c6.763,-1.823 13.723,2.183 15.546,8.946" style="fill:#f1f1f1;fill-rule:nonzero;"/><path d="M888.401,1087.67c-3.956,-20.751 6.315,-40.508 26.665,-47.03c20.345,-6.521 39.739,4.321 48.446,23.109c5.037,10.868 5.482,27.193 -8.329,30.942c-7.991,2.17 -12.82,-3.894 -15.988,-6.948c-7.247,-6.988 -16.014,-1.464 -18.662,6.777c-0.767,2.389 -1.008,5.164 -2.699,7.142c-2.599,3.04 -7.457,3.287 -11.134,3.414c-10.989,0.382 -16.435,-7.631 -18.299,-17.406" style="fill:#f1f1f1;fill-rule:nonzero;"/></g><g><path d="M658.435,67.814c-1.678,6.8 -8.551,10.952 -15.352,9.274c-6.801,-1.678 -10.953,-8.552 -9.275,-15.353c1.678,-6.8 8.552,-10.953 15.353,-9.274c6.8,1.679 10.953,8.552 9.274,15.353" style="fill:#f1f1f1;fill-rule:nonzero;"/><path d="M690.195,53.853c-1.678,6.8 -8.552,10.954 -15.353,9.274c-6.8,-1.677 -10.953,-8.551 -9.274,-15.352c1.678,-6.8 8.552,-10.953 15.353,-9.274c6.8,1.678 10.953,8.552 9.274,15.352" style="fill:#f1f1f1;fill-rule:nonzero;"/><path d="M723.472,62.066c-1.678,6.8 -8.552,10.953 -15.353,9.274c-6.8,-1.678 -10.952,-8.551 -9.274,-15.352c1.678,-6.801 8.552,-10.953 15.353,-9.275c6.8,1.679 10.953,8.552 9.274,15.353" style="fill:#f1f1f1;fill-rule:nonzero;"/><path d="M745.982,88.946c-1.678,6.8 -8.552,10.953 -15.353,9.274c-6.8,-1.678 -10.953,-8.552 -9.274,-15.352c1.678,-6.8 8.552,-10.954 15.353,-9.275c6.8,1.679 10.953,8.552 9.274,15.353" style="fill:#f1f1f1;fill-rule:nonzero;"/><path d="M642.624,98.593c6.581,-20.073 25.131,-32.391 46.095,-28.25c20.96,4.141 32.684,23.014 31.211,43.669c-0.853,11.949 -8.364,26.45 -22.264,23.046c-8.043,-1.969 -9.335,-9.613 -10.628,-13.817c-2.96,-9.623 -13.306,-9.032 -19.611,-3.102c-1.828,1.719 -3.381,4.03 -5.819,4.943c-3.745,1.403 -8.116,-0.732 -11.395,-2.4c-9.801,-4.984 -10.689,-14.633 -7.589,-24.089" style="fill:#f1f1f1;fill-rule:nonzero;"/></g><g><path d="M85.698,185.55c-1.678,6.8 -8.552,10.952 -15.353,9.274c-6.8,-1.678 -10.953,-8.552 -9.274,-15.353c1.678,-6.8 8.552,-10.953 15.353,-9.274c6.8,1.679 10.953,8.552 9.274,15.353" style="fill:#f1f1f1;fill-rule:nonzero;"/><path d="M117.458,171.589c-1.678,6.8 -8.552,10.954 -15.353,9.274c-6.8,-1.677 -10.953,-8.551 -9.274,-15.352c1.678,-6.8 8.551,-10.953 15.353,-9.274c6.8,1.678 10.952,8.552 9.274,15.352" style="fill:#f1f1f1;fill-rule:nonzero;"/><path d="M150.735,179.802c-1.678,6.8 -8.552,10.953 -15.353,9.274c-6.8,-1.678 -10.953,-8.551 -9.274,-15.352c1.678,-6.801 8.552,-10.953 15.353,-9.275c6.8,1.679 10.952,8.552 9.274,15.353" style="fill:#f1f1f1;fill-rule:nonzero;"/><path d="M173.245,206.682c-1.678,6.8 -8.552,10.953 -15.353,9.274c-6.8,-1.677 -10.953,-8.552 -9.274,-15.352c1.678,-6.8 8.551,-10.954 15.353,-9.275c6.8,1.679 10.952,8.552 9.274,15.353" style="fill:#f1f1f1;fill-rule:nonzero;"/><path d="M69.887,216.329c6.581,-20.073 25.131,-32.391 46.095,-28.25c20.96,4.141 32.684,23.014 31.211,43.669c-0.853,11.949 -8.364,26.45 -22.264,23.046c-8.044,-1.969 -9.335,-9.613 -10.629,-13.817c-2.96,-9.623 -13.305,-9.032 -19.61,-3.102c-1.828,1.719 -3.382,4.031 -5.819,4.944c-3.745,1.402 -8.116,-0.733 -11.395,-2.401c-9.801,-4.984 -10.689,-14.633 -7.589,-24.089" style="fill:#f1f1f1;fill-rule:nonzero;"/></g><g><path d="M985,18.097c-1.679,6.8 -8.552,10.952 -15.353,9.274c-6.801,-1.678 -10.953,-8.552 -9.275,-15.353c1.679,-6.8 8.552,-10.953 15.353,-9.274c6.801,1.679 10.953,8.552 9.275,15.353" style="fill:#f1f1f1;fill-rule:nonzero;"/><path d="M1016.76,4.136c-1.679,6.8 -8.552,10.953 -15.353,9.274c-6.801,-1.677 -10.953,-8.551 -9.275,-15.352c1.679,-6.8 8.552,-10.953 15.353,-9.274c6.801,1.678 10.953,8.552 9.275,15.352" style="fill:#f1f1f1;fill-rule:nonzero;"/><path d="M1050.04,12.349c-1.679,6.8 -8.552,10.953 -15.353,9.274c-6.801,-1.678 -10.953,-8.551 -9.275,-15.352c1.679,-6.801 8.552,-10.953 15.353,-9.275c6.801,1.679 10.953,8.552 9.275,15.353" style="fill:#f1f1f1;fill-rule:nonzero;"/><path d="M1072.55,39.229c-1.679,6.8 -8.552,10.952 -15.353,9.274c-6.801,-1.678 -10.953,-8.552 -9.275,-15.352c1.679,-6.801 8.552,-10.954 15.353,-9.275c6.801,1.679 10.953,8.552 9.275,15.353" style="fill:#f1f1f1;fill-rule:nonzero;"/><path d="M969.188,48.876c6.582,-20.073 25.131,-32.391 46.096,-28.25c20.959,4.141 32.683,23.014 31.21,43.669c-0.852,11.949 -8.363,26.45 -22.264,23.046c-8.043,-1.969 -9.334,-9.613 -10.628,-13.818c-2.96,-9.622 -13.306,-9.031 -19.61,-3.102c-1.829,1.72 -3.382,4.031 -5.819,4.944c-3.746,1.403 -8.116,-0.732 -11.396,-2.401c-9.801,-4.984 -10.689,-14.632 -7.589,-24.088" style="fill:#f1f1f1;fill-rule:nonzero;"/></g><g><path d="M1484.09,67.814c-1.678,6.8 -8.552,10.952 -15.353,9.274c-6.8,-1.678 -10.953,-8.552 -9.274,-15.353c1.678,-6.8 8.552,-10.953 15.353,-9.274c6.8,1.679 10.953,8.552 9.274,15.353" style="fill:#f1f1f1;fill-rule:nonzero;"/><path d="M1515.85,53.853c-1.678,6.8 -8.552,10.954 -15.353,9.274c-6.8,-1.677 -10.953,-8.551 -9.274,-15.352c1.678,-6.8 8.551,-10.953 15.352,-9.274c6.801,1.678 10.953,8.552 9.275,15.352" style="fill:#f1f1f1;fill-rule:nonzero;"/><path d="M1549.12,62.066c-1.678,6.8 -8.552,10.953 -15.353,9.274c-6.8,-1.678 -10.953,-8.551 -9.274,-15.352c1.678,-6.801 8.551,-10.953 15.353,-9.275c6.8,1.679 10.952,8.552 9.274,15.353" style="fill:#f1f1f1;fill-rule:nonzero;"/><path d="M1571.63,88.946c-1.678,6.8 -8.552,10.953 -15.353,9.274c-6.8,-1.678 -10.953,-8.552 -9.274,-15.352c1.678,-6.8 8.551,-10.954 15.352,-9.275c6.801,1.679 10.953,8.552 9.275,15.353" style="fill:#f1f1f1;fill-rule:nonzero;"/><path d="M1468.28,98.593c6.581,-20.073 25.131,-32.391 46.095,-28.25c20.959,4.141 32.684,23.014 31.21,43.669c-0.852,11.949 -8.363,26.45 -22.263,23.046c-8.044,-1.969 -9.335,-9.613 -10.629,-13.817c-2.96,-9.623 -13.305,-9.032 -19.61,-3.102c-1.828,1.719 -3.382,4.03 -5.819,4.943c-3.745,1.403 -8.116,-0.732 -11.395,-2.4c-9.801,-4.984 -10.689,-14.633 -7.589,-24.089" style="fill:#f1f1f1;fill-rule:nonzero;"/></g><g><path d="M1832.08,211.073c-1.679,6.8 -8.552,10.952 -15.353,9.274c-6.801,-1.678 -10.953,-8.552 -9.275,-15.353c1.679,-6.8 8.552,-10.953 15.353,-9.274c6.801,1.679 10.953,8.552 9.275,15.353" style="fill:#f1f1f1;fill-rule:nonzero;"/><path d="M1863.84,197.112c-1.679,6.8 -8.552,10.953 -15.353,9.274c-6.801,-1.677 -10.953,-8.551 -9.275,-15.352c1.679,-6.8 8.552,-10.953 15.353,-9.274c6.801,1.678 10.953,8.552 9.275,15.352" style="fill:#f1f1f1;fill-rule:nonzero;"/><path d="M1897.12,205.325c-1.679,6.8 -8.552,10.953 -15.353,9.274c-6.801,-1.678 -10.953,-8.551 -9.275,-15.352c1.679,-6.801 8.552,-10.953 15.353,-9.275c6.801,1.679 10.953,8.552 9.275,15.353" style="fill:#f1f1f1;fill-rule:nonzero;"/><path d="M1919.63,232.205c-1.679,6.8 -8.552,10.953 -15.353,9.274c-6.801,-1.678 -10.953,-8.552 -9.275,-15.352c1.679,-6.8 8.552,-10.954 15.353,-9.275c6.801,1.679 10.953,8.552 9.275,15.353" style="fill:#f1f1f1;fill-rule:nonzero;"/><path d="M1816.27,241.852c6.582,-20.073 25.131,-32.391 46.096,-28.25c20.959,4.141 32.683,23.014 31.21,43.669c-0.852,11.949 -8.363,26.45 -22.264,23.046c-8.043,-1.969 -9.334,-9.613 -10.628,-13.817c-2.96,-9.623 -13.306,-9.032 -19.61,-3.102c-1.829,1.719 -3.382,4.03 -5.819,4.943c-3.746,1.403 -8.116,-0.732 -11.396,-2.4c-9.801,-4.984 -10.689,-14.633 -7.589,-24.089" style="fill:#f1f1f1;fill-rule:nonzero;"/></g><g><path d="M1832.08,604.994c-1.679,6.8 -8.552,10.953 -15.353,9.275c-6.801,-1.679 -10.953,-8.552 -9.275,-15.353c1.679,-6.8 8.552,-10.953 15.353,-9.275c6.801,1.679 10.953,8.553 9.275,15.353" style="fill:#f1f1f1;fill-rule:nonzero;"/><path d="M1863.84,591.033c-1.679,6.801 -8.552,10.954 -15.353,9.275c-6.801,-1.678 -10.953,-8.551 -9.275,-15.352c1.679,-6.801 8.552,-10.953 15.353,-9.275c6.801,1.679 10.953,8.552 9.275,15.352" style="fill:#f1f1f1;fill-rule:nonzero;"/><path d="M1897.12,599.246c-1.679,6.8 -8.552,10.954 -15.353,9.275c-6.801,-1.678 -10.953,-8.552 -9.275,-15.353c1.679,-6.8 8.552,-10.953 15.353,-9.274c6.801,1.678 10.953,8.552 9.275,15.352" style="fill:#f1f1f1;fill-rule:nonzero;"/><path d="M1919.63,626.126c-1.679,6.801 -8.552,10.953 -15.353,9.275c-6.801,-1.678 -10.953,-8.552 -9.275,-15.353c1.679,-6.8 8.552,-10.953 15.353,-9.274c6.801,1.678 10.953,8.552 9.275,15.352" style="fill:#f1f1f1;fill-rule:nonzero;"/><path d="M1816.27,635.774c6.582,-20.074 25.131,-32.392 46.096,-28.25c20.959,4.14 32.683,23.014 31.21,43.669c-0.852,11.948 -8.363,26.449 -22.264,23.045c-8.043,-1.968 -9.334,-9.612 -10.628,-13.817c-2.96,-9.623 -13.306,-9.032 -19.61,-3.102c-1.829,1.719 -3.382,4.031 -5.819,4.944c-3.746,1.402 -8.116,-0.733 -11.396,-2.401c-9.801,-4.984 -10.689,-14.632 -7.589,-24.088" style="fill:#f1f1f1;fill-rule:nonzero;"/></g><g><path d="M1719.16,944.293c-1.679,6.801 -8.552,10.953 -15.353,9.275c-6.801,-1.678 -10.953,-8.552 -9.275,-15.353c1.679,-6.8 8.552,-10.953 15.353,-9.274c6.801,1.679 10.953,8.552 9.275,15.352" style="fill:#f1f1f1;fill-rule:nonzero;"/><path d="M1750.92,930.333c-1.679,6.8 -8.552,10.953 -15.353,9.274c-6.801,-1.677 -10.953,-8.551 -9.275,-15.352c1.679,-6.8 8.552,-10.953 15.353,-9.274c6.8,1.678 10.953,8.551 9.275,15.352" style="fill:#f1f1f1;fill-rule:nonzero;"/><path d="M1784.2,938.545c-1.679,6.801 -8.552,10.954 -15.353,9.275c-6.801,-1.678 -10.953,-8.551 -9.275,-15.352c1.679,-6.801 8.552,-10.953 15.353,-9.275c6.801,1.679 10.953,8.552 9.275,15.352" style="fill:#f1f1f1;fill-rule:nonzero;"/><path d="M1806.71,965.426c-1.679,6.8 -8.552,10.952 -15.353,9.274c-6.801,-1.678 -10.953,-8.552 -9.275,-15.352c1.679,-6.801 8.552,-10.954 15.353,-9.275c6.801,1.679 10.953,8.552 9.275,15.353" style="fill:#f1f1f1;fill-rule:nonzero;"/><path d="M1703.35,975.073c6.582,-20.073 25.131,-32.391 46.096,-28.25c20.959,4.141 32.683,23.014 31.21,43.669c-0.852,11.949 -8.363,26.449 -22.264,23.046c-8.043,-1.969 -9.334,-9.613 -10.628,-13.818c-2.96,-9.623 -13.306,-9.031 -19.61,-3.102c-1.829,1.719 -3.382,4.031 -5.819,4.944c-3.746,1.403 -8.116,-0.733 -11.396,-2.401c-9.801,-4.984 -10.689,-14.632 -7.589,-24.088" style="fill:#f1f1f1;fill-rule:nonzero;"/></g><g><path d="M48.336,746.38c-1.678,6.801 -8.552,10.953 -15.353,9.275c-6.8,-1.678 -10.953,-8.552 -9.275,-15.353c1.679,-6.8 8.552,-10.953 15.353,-9.274c6.801,1.679 10.953,8.552 9.275,15.352" style="fill:#f1f1f1;fill-rule:nonzero;"/><path d="M80.096,732.42c-1.679,6.8 -8.552,10.953 -15.353,9.274c-6.801,-1.677 -10.953,-8.551 -9.275,-15.352c1.679,-6.8 8.552,-10.953 15.353,-9.274c6.801,1.678 10.953,8.551 9.275,15.352" style="fill:#f1f1f1;fill-rule:nonzero;"/><path d="M113.373,740.632c-1.679,6.801 -8.552,10.954 -15.353,9.275c-6.801,-1.678 -10.953,-8.551 -9.275,-15.352c1.679,-6.801 8.552,-10.953 15.353,-9.275c6.801,1.679 10.953,8.552 9.275,15.352" style="fill:#f1f1f1;fill-rule:nonzero;"/><path d="M135.883,767.513c-1.679,6.8 -8.552,10.952 -15.353,9.274c-6.801,-1.678 -10.953,-8.552 -9.275,-15.352c1.679,-6.801 8.552,-10.954 15.353,-9.275c6.801,1.679 10.953,8.552 9.275,15.353" style="fill:#f1f1f1;fill-rule:nonzero;"/><path d="M32.524,777.16c6.582,-20.073 25.131,-32.391 46.096,-28.25c20.959,4.141 32.684,23.014 31.21,43.669c-0.852,11.949 -8.363,26.449 -22.264,23.046c-8.043,-1.969 -9.334,-9.613 -10.628,-13.818c-2.96,-9.623 -13.305,-9.031 -19.61,-3.102c-1.828,1.719 -3.382,4.031 -5.819,4.944c-3.746,1.403 -8.116,-0.733 -11.396,-2.401c-9.801,-4.984 -10.689,-14.632 -7.589,-24.088" style="fill:#f1f1f1;fill-rule:nonzero;"/></g><path d="M1295.09,665.13c2.663,6.478 -0.428,13.889 -6.907,16.553c-6.479,2.664 -13.89,-0.428 -16.554,-6.906c-2.664,-6.478 0.428,-13.889 6.907,-16.554c6.478,-2.664 13.89,0.428 16.554,6.907" style="fill:#f1f1f1;fill-rule:nonzero;"/><path d="M1312.46,635.102c2.664,6.478 -0.428,13.889 -6.906,16.553c-6.479,2.664 -13.89,-0.428 -16.554,-6.906c-2.664,-6.478 0.428,-13.889 6.907,-16.554c6.477,-2.664 13.889,0.428 16.553,6.907" style="fill:#f1f1f1;fill-rule:nonzero;"/><path d="M1344.16,622.066c2.664,6.478 -0.428,13.89 -6.906,16.553c-6.479,2.664 -13.89,-0.428 -16.554,-6.906c-2.664,-6.478 0.428,-13.889 6.907,-16.554c6.477,-2.664 13.889,0.428 16.553,6.907" style="fill:#f1f1f1;fill-rule:nonzero;"/><path d="M1378.21,630.452c2.663,6.478 -0.428,13.89 -6.907,16.553c-6.478,2.665 -13.889,-0.428 -16.553,-6.906c-2.664,-6.478 0.428,-13.889 6.906,-16.553c6.478,-2.664 13.89,0.427 16.554,6.906" style="fill:#f1f1f1;fill-rule:nonzero;"/><path d="M1300.52,699.305c-6.55,-20.084 1.136,-40.982 20.498,-50.027c19.356,-9.043 39.966,-0.744 50.981,16.791c6.373,10.143 8.88,26.28 -4.345,31.747c-7.653,3.164 -13.211,-2.24 -16.739,-4.868c-8.074,-6.015 -16.071,0.575 -17.655,9.083c-0.459,2.467 -0.346,5.251 -1.773,7.428c-2.193,3.344 -6.98,4.204 -10.612,4.796c-10.852,1.77 -17.269,-5.49 -20.355,-14.95" style="fill:#f1f1f1;fill-rule:nonzero;"/><path d="M1528.99,396.613c0.009,7.004 -5.664,12.689 -12.668,12.697c-7.005,0.009 -12.69,-5.664 -12.698,-12.668c-0.008,-7.005 5.664,-12.69 12.669,-12.698c7.005,-0.008 12.689,5.664 12.697,12.669" style="fill:#f1f1f1;fill-rule:nonzero;"/><path d="M1556.46,375.418c0.009,7.004 -5.663,12.69 -12.668,12.697c-7.005,0.008 -12.69,-5.664 -12.697,-12.668c-0.009,-7.005 5.663,-12.69 12.668,-12.698c7.005,-0.008 12.689,5.664 12.697,12.669" style="fill:#f1f1f1;fill-rule:nonzero;"/><path d="M1590.74,375.379c0.009,7.004 -5.663,12.689 -12.668,12.697c-7.005,0.008 -12.69,-5.664 -12.698,-12.668c-0.008,-7.005 5.664,-12.69 12.669,-12.698c7.005,-0.008 12.689,5.664 12.697,12.669" style="fill:#f1f1f1;fill-rule:nonzero;"/><path d="M1619.05,396.05c0.008,7.005 -5.664,12.689 -12.669,12.698c-7.005,0.008 -12.69,-5.664 -12.698,-12.669c-0.008,-7.005 5.664,-12.69 12.669,-12.697c7.005,-0.009 12.689,5.663 12.698,12.668" style="fill:#f1f1f1;fill-rule:nonzero;"/><path d="M1600.22,430.293c-1.556,-21.067 -16.595,-37.488 -37.941,-38.514c-21.338,-1.026 -37.262,14.469 -40.804,34.872c-2.048,11.802 1.752,27.684 16.062,27.727c8.281,0.025 11.374,-7.084 13.641,-10.853c5.191,-8.628 15.09,-5.563 19.782,1.709c1.36,2.109 2.312,4.727 4.458,6.2c3.297,2.263 8.053,1.242 11.638,0.413c10.712,-2.478 13.897,-11.63 13.164,-21.554" style="fill:#f1f1f1;fill-rule:nonzero;"/><g><path d="M673.342,863.994c0,7.004 -5.679,12.683 -12.683,12.683c-7.005,0 -12.683,-5.679 -12.683,-12.683c0,-7.005 5.678,-12.683 12.683,-12.683c7.004,0 12.683,5.678 12.683,12.683" style="fill:#f1f1f1;fill-rule:nonzero;"/><path d="M700.831,842.83c0,7.005 -5.679,12.684 -12.683,12.684c-7.004,0 -12.683,-5.679 -12.683,-12.684c0,-7.004 5.679,-12.683 12.683,-12.683c7.004,0 12.683,5.679 12.683,12.683" style="fill:#f1f1f1;fill-rule:nonzero;"/><path d="M735.107,842.83c0,7.005 -5.679,12.684 -12.683,12.684c-7.005,0 -12.683,-5.679 -12.683,-12.684c0,-7.004 5.678,-12.683 12.683,-12.683c7.004,0 12.683,5.679 12.683,12.683" style="fill:#f1f1f1;fill-rule:nonzero;"/><path d="M763.401,863.533c0,7.005 -5.678,12.684 -12.683,12.684c-7.004,0 -12.682,-5.679 -12.682,-12.684c0,-7.004 5.678,-12.683 12.682,-12.683c7.005,0 12.683,5.679 12.683,12.683" style="fill:#f1f1f1;fill-rule:nonzero;"/><path d="M665.365,897.665c1.581,-21.065 16.638,-37.469 37.984,-38.471c21.341,-1.002 37.246,14.512 40.765,34.919c2.035,11.804 -1.782,27.683 -16.093,27.709c-8.281,0.015 -11.366,-7.097 -13.629,-10.869c-5.18,-8.634 -15.083,-5.581 -19.783,1.687c-1.364,2.107 -2.318,4.724 -4.466,6.194c-3.299,2.259 -8.054,1.233 -11.638,0.4c-10.71,-2.491 -13.883,-11.646 -13.14,-21.569" style="fill:#f1f1f1;fill-rule:nonzero;"/></g><g><path d="M1035.28,771.351c-2.67,6.476 -10.084,9.561 -16.56,6.891c-6.476,-2.67 -9.562,-10.084 -6.891,-16.56c2.67,-6.476 10.084,-9.561 16.56,-6.891c6.475,2.671 9.561,10.085 6.891,16.56" style="fill:#f1f1f1;fill-rule:nonzero;"/><path d="M1068.76,762.265c-2.67,6.476 -10.084,9.561 -16.56,6.891c-6.476,-2.671 -9.562,-10.084 -6.891,-16.56c2.67,-6.476 10.085,-9.561 16.56,-6.891c6.475,2.67 9.561,10.084 6.891,16.56" style="fill:#f1f1f1;fill-rule:nonzero;"/><path d="M1100.45,775.33c-2.67,6.476 -10.084,9.561 -16.56,6.891c-6.476,-2.67 -9.562,-10.084 -6.891,-16.561c2.67,-6.475 10.084,-9.56 16.56,-6.89c6.475,2.67 9.561,10.084 6.891,16.56" style="fill:#f1f1f1;fill-rule:nonzero;"/><path d="M1118.72,805.256c-2.67,6.476 -10.084,9.561 -16.56,6.891c-6.476,-2.67 -9.561,-10.084 -6.89,-16.56c2.67,-6.476 10.083,-9.561 16.559,-6.891c6.476,2.67 9.561,10.084 6.891,16.56" style="fill:#f1f1f1;fill-rule:nonzero;"/><path d="M1015.07,799.441c9.49,-18.873 29.664,-28.299 49.78,-21.088c20.112,7.209 28.903,27.614 24.377,47.821c-2.619,11.69 -12.201,24.913 -25.441,19.483c-7.661,-3.143 -7.803,-10.894 -8.457,-15.243c-1.498,-9.957 -11.816,-10.909 -18.933,-5.982c-2.062,1.428 -3.943,3.483 -6.488,4.024c-3.912,0.831 -7.917,-1.93 -10.913,-4.067c-8.951,-6.385 -8.396,-16.058 -3.925,-24.948" style="fill:#f1f1f1;fill-rule:nonzero;"/></g></g></g></svg>